<svg width="61" height="61" viewBox="0 0 61 61" fill="none" xmlns="http://www.w3.org/2000/svg">
<path d="M60.5 52.5278C60.5 57.2078 56.77 61 52.1667 61H8.83333C4.23167 61 0.5 57.2078 0.5 52.5278V8.47222C0.5 3.79217 4.23167 0 8.83333 0H52.1667C56.77 0 60.5 3.79217 60.5 8.47222V52.5278Z" fill="#0078D4"/>
<path opacity="0.05" d="M40.5002 52.5277V35.4156C40.5002 32.5536 39.1352 30.8439 36.8468 30.8439C35.4885 30.8439 34.4902 31.6217 33.8818 33.1552C33.8535 33.2636 33.8135 33.7059 33.8302 35.0428L33.8335 52.5277H22.1668V20.3333H33.8335V22.1311C35.5368 20.9365 37.6252 20.3333 40.0635 20.3333C47.6418 20.3333 52.1652 25.5742 52.1652 34.3531L52.1668 52.5277H40.5002ZM8.8335 52.5277V20.3333H14.5952C11.2568 20.3333 8.8335 17.8391 8.8335 14.4011C8.8335 10.9664 11.2968 8.4722 14.6902 8.4722C18.0435 8.4722 20.4318 10.8969 20.5002 14.3672C20.5002 17.8306 18.0352 20.3333 14.6418 20.3333H20.5002V52.5277H8.8335Z" fill="black"/>
<path opacity="0.07" d="M41.3332 51.6806V35.4156C41.3332 32.0725 39.6148 29.9968 36.8465 29.9968C34.6882 29.9968 33.6215 31.5421 33.1082 32.8383C32.9715 33.1755 32.9898 34.5142 32.9965 35.0852L32.9998 51.6806H22.9998V21.1806H32.9998V23.9561C34.3248 22.5615 36.4582 21.1806 40.0632 21.1806C47.1182 21.1806 51.3315 26.1046 51.3315 34.3532L51.3332 51.6806H41.3332ZM9.6665 51.6806V21.1806H19.6665V51.6806H9.6665ZM14.5948 19.4861C11.7398 19.4861 9.6665 17.3477 9.6665 14.4011C9.6665 11.4562 11.7798 9.31946 14.6898 9.31946C17.5632 9.31946 19.6082 11.4019 19.6665 14.3842C19.6665 17.3477 17.5532 19.4861 14.6415 19.4861H14.5948Z" fill="black"/>
<path d="M10.5 22.0278H18.8333V50.8333H10.5V22.0278ZM14.6417 18.6389H14.595C12.1083 18.6389 10.5 16.7547 10.5 14.4011C10.5 11.9967 12.1583 10.1667 14.69 10.1667C17.225 10.1667 18.7867 11.9967 18.8333 14.4011C18.8333 16.753 17.225 18.6389 14.6417 18.6389ZM50.5 50.8333H42.1667V35.4156C42.1667 31.6912 40.125 29.1495 36.8467 29.1495C34.345 29.1495 32.9917 30.8643 32.335 32.5215C32.095 33.1145 32.1667 34.7548 32.1667 35.5833V50.8333H23.8333V22.0278H32.1667V26.4604C33.3683 24.5694 35.25 22.0278 40.0633 22.0278C46.0267 22.0278 50.4983 25.8403 50.4983 34.3532L50.5 50.8333Z" fill="white"/>
</svg>
