<?xml version="1.0" standalone="no"?>
<!DOCTYPE svg PUBLIC "-//W3C//DTD SVG 20010904//EN"
 "http://www.w3.org/TR/2001/REC-SVG-20010904/DTD/svg10.dtd">
<svg version="1.0" xmlns="http://www.w3.org/2000/svg"
 width="1275.000000pt" height="575.000000pt" viewBox="0 0 1275.000000 575.000000"
 preserveAspectRatio="xMidYMid meet">
<metadata>
Created by potrace 1.16, written by Peter Selinger 2001-2019
</metadata>
<g transform="translate(0.000000,575.000000) scale(0.100000,-0.100000)"
fill="#000000" stroke="none">
<path d="M12622 4737 c-68 -78 -144 -166 -170 -195 l-47 -54 -500 -76 -500
-77 -496 -529 c-273 -290 -502 -532 -510 -536 -8 -4 -228 -85 -489 -179 -261
-95 -485 -179 -497 -189 -12 -9 -243 -318 -513 -686 l-490 -669 -503 -279
c-276 -152 -509 -278 -517 -278 -8 0 -235 99 -505 220 l-490 219 -500 -498
-500 -499 -501 101 -501 100 -499 -163 c-274 -89 -502 -163 -505 -164 -3 0
-228 179 -498 399 -271 220 -496 401 -500 403 -5 2 -231 -128 -503 -287 l-494
-290 -501 165 -501 165 -193 -104 -194 -104 -3 -327 -2 -326 6375 0 6375 0 0
2440 c0 1342 -1 2440 -2 2439 -2 0 -58 -64 -126 -142z"/>
</g>
</svg>
